<svg width="636" height="155" fill="none" xmlns="http://www.w3.org/2000/svg"><mask id="a" maskUnits="userSpaceOnUse" x=".728" y="-.104" width="635" height="155" fill="#000"><path fill="#fff" d="M.728-.104h635v155h-635z"/><path d="M32.384 30.536c1.44.576 2.448 1.632 3.024 3.168-1.632 3.84-2.64 7.776-3.024 11.808-.288 3.936-.432 14.4-.432 31.392 0 16.896.432 25.392 1.296 25.488 2.688.288 6.672.432 11.952.432.288 1.44.432 2.208.432 2.304l-.432 2.304L28.352 107c-9.024 0-16.992.384-23.904 1.152-.48-.48-.72-1.248-.72-2.304l.144-1.296c9.408-2.112 14.592-4.512 15.552-7.2 1.152-2.784 1.728-10.656 1.728-23.616 0-13.056-.096-21.888-.288-26.496L5.456 49.256c-.672-.96-1.008-1.92-1.008-2.88 0-1.056.096-1.776.288-2.16 8.352-2.688 13.872-4.704 16.56-6.048 2.784-1.44 6.48-3.984 11.088-7.632zm65.813 76.896L75.013 107c-9.6 0-16.513.24-20.737.72-.576-.768-.864-1.776-.864-3.024l17.28-16.704c.289-.288 1.489-1.392 3.6-3.312a690.58 690.58 0 005.184-4.752c1.344-1.344 3.073-3.168 5.184-5.472 2.112-2.4 3.84-4.608 5.184-6.624 3.169-4.8 4.753-9.264 4.753-13.392 0-4.224-1.536-7.728-4.608-10.512-3.073-2.784-6.577-4.176-10.513-4.176s-8.591 1.296-13.968 3.888c-1.151 6.816-1.823 11.664-2.015 14.544-.769.384-1.537.576-2.305.576-.672 0-1.248-.096-1.727-.288-.384-6.048-.96-10.176-1.728-12.384-.672-2.304-1.008-3.504-1.008-3.6 0-1.248.72-2.16 2.16-2.736 5.855-2.496 13.727-5.232 23.616-8.208 6.911 0 12.767 1.584 17.568 4.752 4.8 3.168 7.2 8.16 7.2 14.976 0 6.816-4.224 14.208-12.672 22.176L68.965 97.784h15.263c8.449 0 14.209-.288 17.281-.864 3.168-.672 5.52-1.872 7.056-3.6.48-.576 1.391-2.352 2.735-5.328.192-.096.721-.144 1.585-.144s1.584.288 2.16.864c-.288 1.728-.625 3.6-1.009 5.616l-.863 4.32c-.385 3.072-.576 5.424-.576 7.056-1.92 1.152-6.72 1.728-14.4 1.728zm51.301-67.392c-4.032 0-9.504 1.248-16.416 3.744-.96 5.952-1.584 10.848-1.872 14.688a5.4 5.4 0 01-2.448.576l-1.728-.432c-.576-6.912-1.296-11.808-2.16-14.688l-.576-1.584c0-.96.72-1.728 2.16-2.304 3.84-2.016 12.72-4.848 26.64-8.496 16.8 0 25.2 5.712 25.2 17.136 0 2.784-.912 5.664-2.736 8.64-1.824 2.88-5.904 7.392-12.24 13.536l-5.472 5.184c13.728 8.832 20.592 18.912 20.592 30.24 0 9.888-4.176 18.096-12.528 24.624-8.352 6.528-21.264 12.912-38.736 19.152-.768-.768-1.152-2.016-1.152-3.744 13.44-6.048 23.424-11.808 29.952-17.28 6.528-5.376 9.792-11.376 9.792-18 0-6.528-2.064-12-6.192-16.416-4.032-4.416-9.648-8.688-16.848-12.816l11.664-10.656c7.584-6.816 11.376-13.104 11.376-18.864 0-8.16-5.424-12.24-16.272-12.24zm83.889 80.64v-13.248c-9.792-.288-18.864-.432-27.216-.432s-14.448.24-18.288.72c-.48-.576-.72-1.584-.72-3.024 2.4-2.496 4.368-4.8 5.904-6.912l31.104-41.328c5.088-6.624 10.224-13.872 15.408-21.744l2.304-3.6c1.536.192 2.88.672 4.032 1.44-1.248 5.568-1.872 18.096-1.872 37.584v27.792c6.816 0 10.848-.864 12.096-2.592 1.248-2.304 2.208-4.416 2.88-6.336.48-.192 1.056-.288 1.728-.288.672 0 1.344.336 2.016 1.008-.384 2.304-.96 5.136-1.728 8.496-.672 3.264-1.056 5.856-1.152 7.776-1.536.864-6.816 1.392-15.84 1.584 0 3.36.24 15.792.72 37.296-3.072.192-6.672 1.728-10.8 4.608a5.08 5.08 0 01-2.88-.864c1.536-7.008 2.304-16.32 2.304-27.936zm0-22.32V54.008l-33.12 44.352h33.12zm91.935-55.296c-2.112 1.44-7.152 2.16-15.12 2.16-7.872 0-17.376-.192-28.512-.576l-2.448 17.856c11.808 4.704 21.504 10.32 29.088 16.848 7.584 6.528 11.376 13.824 11.376 21.888 0 11.616-4.656 21.408-13.968 29.376-4.704 4.032-9.6 7.536-14.688 10.512-4.992 3.072-11.424 6.528-19.296 10.368-.96-.384-1.536-1.584-1.728-3.6 12.192-7.2 21.312-13.92 27.36-20.16 6.048-6.144 9.072-13.008 9.072-20.592 0-7.488-3.312-14.064-9.936-19.728-6.624-5.76-14.928-10.56-24.912-14.4l6.336-39.744c11.232.48 20.832.72 28.8.72s12.768-.816 14.4-2.448c.48-.48 1.008-1.248 1.584-2.304.576-1.152 1.008-1.968 1.296-2.448 1.344 0 2.496.24 3.456.72-1.344 6.72-2.064 11.904-2.16 15.552zm16.654 24.912c0-8.928 2.352-18.144 7.056-27.648 4.8-9.504 11.76-17.232 20.88-23.184 9.216-6.048 19.296-10.464 30.24-13.248.768 1.056 1.152 2.256 1.152 3.6-12.096 4.992-21.6 10.464-28.512 16.416-11.232 9.792-16.848 24.384-16.848 43.776 0 9.888 1.584 18.288 4.752 25.2 1.632 3.552 3.888 6.336 6.768 8.352 2.976 2.016 6.432 3.024 10.368 3.024 5.856 0 10.368-2.16 13.536-6.48 3.168-4.32 4.752-9.648 4.752-15.984s-1.872-12.24-5.616-17.712c-3.744-5.568-8.688-8.352-14.832-8.352-3.456 0-6.816.912-10.08 2.736-1.344-.672-2.016-1.92-2.016-3.744 5.088-3.072 11.184-4.608 18.288-4.608 7.2 0 13.44 2.688 18.72 8.064 5.28 5.376 7.92 11.616 7.92 18.72 0 9.696-3.168 17.232-9.504 22.608-6.336 5.376-14.688 8.832-25.056 10.368-9.696 0-17.472-3.888-23.328-11.664-5.76-7.776-8.64-17.856-8.64-30.24zM487.153 32.84c.768.576 1.248 1.488 1.44 2.736-8.256 10.848-17.088 25.488-26.496 43.92a482.346 482.346 0 00-28.224 69.408 2.858 2.858 0 01-1.296.288c-.48 0-.912-.096-1.296-.288-2.304-2.304-5.04-3.792-8.208-4.464l-1.584-.432c9.216-21.12 19.68-42.048 31.392-62.784a828.042 828.042 0 0122.176-36.288c-8.736-.768-19.056-1.152-30.96-1.152s-18.576 1.152-20.016 3.456c-1.344 2.496-2.352 4.56-3.024 6.192-.288.096-.816.144-1.584.144-.672 0-1.44-.288-2.304-.864 2.208-12.288 3.312-18.96 3.312-20.016 7.2.672 18.672 1.008 34.416 1.008 15.744 0 26.496-.288 32.256-.864zm8.054-1.44c0-7.872 2.592-13.872 7.776-18 5.184-4.224 11.952-6.96 20.304-8.208 6.528 0 12.528 2.112 18 6.336 5.472 4.128 8.208 8.928 8.208 14.4 0 5.472-1.536 9.984-4.608 13.536-3.072 3.552-8.16 7.776-15.264 12.672 7.488 4.608 13.392 9.168 17.712 13.68 4.32 4.512 6.48 9.648 6.48 15.408 0 8.448-2.976 15.024-8.928 19.728-5.856 4.608-13.392 7.584-22.608 8.928-7.296 0-14.016-2.256-20.16-6.768-6.144-4.608-9.216-10.128-9.216-16.56 0-6.432 2.16-11.952 6.48-16.56 4.416-4.704 10.512-9.312 18.288-13.824-7.2-4.32-12.768-8.352-16.704-12.096-3.84-3.744-5.76-7.968-5.76-12.672zm9.648 51.264c0 6.048 1.872 11.232 5.616 15.552 3.744 4.32 8.352 6.48 13.824 6.48 5.568 0 9.936-1.776 13.104-5.328 3.264-3.648 4.896-8.112 4.896-13.392 0-5.28-1.92-9.984-5.76-14.112s-9.168-8.4-15.984-12.816c-10.464 7.584-15.696 15.456-15.696 23.616zm33.696-53.28c0-5.376-1.68-9.984-5.04-13.824-3.36-3.84-7.488-5.76-12.384-5.76-4.8 0-8.688 1.632-11.664 4.896-2.88 3.264-4.32 6.816-4.32 10.656 0 6.912 7.2 14.88 21.6 23.904 7.872-6.144 11.808-12.768 11.808-19.872zm93.901 47.232c0 9.408-2.016 19.248-6.048 29.52-3.936 10.176-9.504 18.72-16.704 25.632-9.024 8.544-18.72 14.64-29.088 18.288-.96-1.056-1.44-2.304-1.44-3.744 6.24-3.456 11.328-6.72 15.264-9.792 3.936-2.976 7.776-6.912 11.52-11.808 8.352-10.752 12.528-26.688 12.528-47.808 0-15.648-2.976-26.928-8.928-33.84-3.456-3.936-7.92-5.904-13.392-5.904-5.472 0-9.792 2.304-12.96 6.912-3.072 4.608-4.608 10.272-4.608 16.992 0 6.72 1.824 13.008 5.472 18.864 3.648 5.856 8.544 8.784 14.688 8.784 2.976 0 6.432-.864 10.368-2.592 1.248.672 1.872 1.872 1.872 3.6-4.896 3.072-10.992 4.608-18.288 4.608-7.2 0-13.488-2.784-18.864-8.352-5.28-5.568-7.92-12.048-7.92-19.44 0-10.176 3.168-18.144 9.504-23.904 6.432-5.76 14.832-9.456 25.2-11.088 9.696 0 17.424 4.224 23.184 12.672 5.76 8.352 8.64 19.152 8.64 32.4z"/></mask><path d="M32.384 30.536c1.44.576 2.448 1.632 3.024 3.168-1.632 3.84-2.64 7.776-3.024 11.808-.288 3.936-.432 14.4-.432 31.392 0 16.896.432 25.392 1.296 25.488 2.688.288 6.672.432 11.952.432.288 1.44.432 2.208.432 2.304l-.432 2.304L28.352 107c-9.024 0-16.992.384-23.904 1.152-.48-.48-.72-1.248-.72-2.304l.144-1.296c9.408-2.112 14.592-4.512 15.552-7.2 1.152-2.784 1.728-10.656 1.728-23.616 0-13.056-.096-21.888-.288-26.496L5.456 49.256c-.672-.96-1.008-1.92-1.008-2.88 0-1.056.096-1.776.288-2.16 8.352-2.688 13.872-4.704 16.56-6.048 2.784-1.44 6.48-3.984 11.088-7.632zm65.813 76.896L75.013 107c-9.6 0-16.513.24-20.737.72-.576-.768-.864-1.776-.864-3.024l17.28-16.704c.289-.288 1.489-1.392 3.6-3.312a690.58 690.58 0 005.184-4.752c1.344-1.344 3.073-3.168 5.184-5.472 2.112-2.4 3.84-4.608 5.184-6.624 3.169-4.8 4.753-9.264 4.753-13.392 0-4.224-1.536-7.728-4.608-10.512-3.073-2.784-6.577-4.176-10.513-4.176s-8.591 1.296-13.968 3.888c-1.151 6.816-1.823 11.664-2.015 14.544-.769.384-1.537.576-2.305.576-.672 0-1.248-.096-1.727-.288-.384-6.048-.96-10.176-1.728-12.384-.672-2.304-1.008-3.504-1.008-3.6 0-1.248.72-2.16 2.16-2.736 5.855-2.496 13.727-5.232 23.616-8.208 6.911 0 12.767 1.584 17.568 4.752 4.8 3.168 7.2 8.16 7.2 14.976 0 6.816-4.224 14.208-12.672 22.176L68.965 97.784h15.263c8.449 0 14.209-.288 17.281-.864 3.168-.672 5.52-1.872 7.056-3.6.48-.576 1.391-2.352 2.735-5.328.192-.096.721-.144 1.585-.144s1.584.288 2.16.864c-.288 1.728-.625 3.6-1.009 5.616l-.863 4.32c-.385 3.072-.576 5.424-.576 7.056-1.92 1.152-6.72 1.728-14.4 1.728zm51.301-67.392c-4.032 0-9.504 1.248-16.416 3.744-.96 5.952-1.584 10.848-1.872 14.688a5.4 5.4 0 01-2.448.576l-1.728-.432c-.576-6.912-1.296-11.808-2.16-14.688l-.576-1.584c0-.96.72-1.728 2.16-2.304 3.84-2.016 12.72-4.848 26.64-8.496 16.8 0 25.2 5.712 25.2 17.136 0 2.784-.912 5.664-2.736 8.64-1.824 2.88-5.904 7.392-12.24 13.536l-5.472 5.184c13.728 8.832 20.592 18.912 20.592 30.24 0 9.888-4.176 18.096-12.528 24.624-8.352 6.528-21.264 12.912-38.736 19.152-.768-.768-1.152-2.016-1.152-3.744 13.44-6.048 23.424-11.808 29.952-17.28 6.528-5.376 9.792-11.376 9.792-18 0-6.528-2.064-12-6.192-16.416-4.032-4.416-9.648-8.688-16.848-12.816l11.664-10.656c7.584-6.816 11.376-13.104 11.376-18.864 0-8.16-5.424-12.24-16.272-12.24zm83.889 80.64v-13.248c-9.792-.288-18.864-.432-27.216-.432s-14.448.24-18.288.72c-.48-.576-.72-1.584-.72-3.024 2.4-2.496 4.368-4.8 5.904-6.912l31.104-41.328c5.088-6.624 10.224-13.872 15.408-21.744l2.304-3.6c1.536.192 2.88.672 4.032 1.44-1.248 5.568-1.872 18.096-1.872 37.584v27.792c6.816 0 10.848-.864 12.096-2.592 1.248-2.304 2.208-4.416 2.88-6.336.48-.192 1.056-.288 1.728-.288.672 0 1.344.336 2.016 1.008-.384 2.304-.96 5.136-1.728 8.496-.672 3.264-1.056 5.856-1.152 7.776-1.536.864-6.816 1.392-15.84 1.584 0 3.36.24 15.792.72 37.296-3.072.192-6.672 1.728-10.8 4.608a5.08 5.08 0 01-2.88-.864c1.536-7.008 2.304-16.32 2.304-27.936zm0-22.32V54.008l-33.12 44.352h33.12zm91.935-55.296c-2.112 1.44-7.152 2.16-15.12 2.16-7.872 0-17.376-.192-28.512-.576l-2.448 17.856c11.808 4.704 21.504 10.32 29.088 16.848 7.584 6.528 11.376 13.824 11.376 21.888 0 11.616-4.656 21.408-13.968 29.376-4.704 4.032-9.6 7.536-14.688 10.512-4.992 3.072-11.424 6.528-19.296 10.368-.96-.384-1.536-1.584-1.728-3.6 12.192-7.2 21.312-13.92 27.36-20.16 6.048-6.144 9.072-13.008 9.072-20.592 0-7.488-3.312-14.064-9.936-19.728-6.624-5.76-14.928-10.56-24.912-14.4l6.336-39.744c11.232.48 20.832.72 28.8.72s12.768-.816 14.4-2.448c.48-.48 1.008-1.248 1.584-2.304.576-1.152 1.008-1.968 1.296-2.448 1.344 0 2.496.24 3.456.72-1.344 6.72-2.064 11.904-2.16 15.552zm16.654 24.912c0-8.928 2.352-18.144 7.056-27.648 4.8-9.504 11.76-17.232 20.88-23.184 9.216-6.048 19.296-10.464 30.24-13.248.768 1.056 1.152 2.256 1.152 3.6-12.096 4.992-21.6 10.464-28.512 16.416-11.232 9.792-16.848 24.384-16.848 43.776 0 9.888 1.584 18.288 4.752 25.2 1.632 3.552 3.888 6.336 6.768 8.352 2.976 2.016 6.432 3.024 10.368 3.024 5.856 0 10.368-2.16 13.536-6.48 3.168-4.32 4.752-9.648 4.752-15.984s-1.872-12.24-5.616-17.712c-3.744-5.568-8.688-8.352-14.832-8.352-3.456 0-6.816.912-10.08 2.736-1.344-.672-2.016-1.92-2.016-3.744 5.088-3.072 11.184-4.608 18.288-4.608 7.2 0 13.44 2.688 18.72 8.064 5.28 5.376 7.92 11.616 7.92 18.72 0 9.696-3.168 17.232-9.504 22.608-6.336 5.376-14.688 8.832-25.056 10.368-9.696 0-17.472-3.888-23.328-11.664-5.76-7.776-8.64-17.856-8.64-30.24zM487.153 32.84c.768.576 1.248 1.488 1.44 2.736-8.256 10.848-17.088 25.488-26.496 43.92a482.346 482.346 0 00-28.224 69.408 2.858 2.858 0 01-1.296.288c-.48 0-.912-.096-1.296-.288-2.304-2.304-5.04-3.792-8.208-4.464l-1.584-.432c9.216-21.12 19.68-42.048 31.392-62.784a828.042 828.042 0 0122.176-36.288c-8.736-.768-19.056-1.152-30.96-1.152s-18.576 1.152-20.016 3.456c-1.344 2.496-2.352 4.56-3.024 6.192-.288.096-.816.144-1.584.144-.672 0-1.44-.288-2.304-.864 2.208-12.288 3.312-18.96 3.312-20.016 7.2.672 18.672 1.008 34.416 1.008 15.744 0 26.496-.288 32.256-.864zm8.054-1.44c0-7.872 2.592-13.872 7.776-18 5.184-4.224 11.952-6.96 20.304-8.208 6.528 0 12.528 2.112 18 6.336 5.472 4.128 8.208 8.928 8.208 14.4 0 5.472-1.536 9.984-4.608 13.536-3.072 3.552-8.16 7.776-15.264 12.672 7.488 4.608 13.392 9.168 17.712 13.68 4.32 4.512 6.48 9.648 6.48 15.408 0 8.448-2.976 15.024-8.928 19.728-5.856 4.608-13.392 7.584-22.608 8.928-7.296 0-14.016-2.256-20.16-6.768-6.144-4.608-9.216-10.128-9.216-16.56 0-6.432 2.16-11.952 6.48-16.56 4.416-4.704 10.512-9.312 18.288-13.824-7.2-4.32-12.768-8.352-16.704-12.096-3.84-3.744-5.76-7.968-5.76-12.672zm9.648 51.264c0 6.048 1.872 11.232 5.616 15.552 3.744 4.32 8.352 6.48 13.824 6.48 5.568 0 9.936-1.776 13.104-5.328 3.264-3.648 4.896-8.112 4.896-13.392 0-5.28-1.92-9.984-5.76-14.112s-9.168-8.4-15.984-12.816c-10.464 7.584-15.696 15.456-15.696 23.616zm33.696-53.28c0-5.376-1.68-9.984-5.04-13.824-3.36-3.84-7.488-5.76-12.384-5.76-4.8 0-8.688 1.632-11.664 4.896-2.88 3.264-4.32 6.816-4.32 10.656 0 6.912 7.2 14.88 21.6 23.904 7.872-6.144 11.808-12.768 11.808-19.872zm93.901 47.232c0 9.408-2.016 19.248-6.048 29.52-3.936 10.176-9.504 18.72-16.704 25.632-9.024 8.544-18.72 14.64-29.088 18.288-.96-1.056-1.44-2.304-1.44-3.744 6.24-3.456 11.328-6.72 15.264-9.792 3.936-2.976 7.776-6.912 11.52-11.808 8.352-10.752 12.528-26.688 12.528-47.808 0-15.648-2.976-26.928-8.928-33.84-3.456-3.936-7.92-5.904-13.392-5.904-5.472 0-9.792 2.304-12.96 6.912-3.072 4.608-4.608 10.272-4.608 16.992 0 6.72 1.824 13.008 5.472 18.864 3.648 5.856 8.544 8.784 14.688 8.784 2.976 0 6.432-.864 10.368-2.592 1.248.672 1.872 1.872 1.872 3.6-4.896 3.072-10.992 4.608-18.288 4.608-7.2 0-13.488-2.784-18.864-8.352-5.28-5.568-7.92-12.048-7.92-19.44 0-10.176 3.168-18.144 9.504-23.904 6.432-5.76 14.832-9.456 25.2-11.088 9.696 0 17.424 4.224 23.184 12.672 5.76 8.352 8.64 19.152 8.64 32.4z" stroke="#fff" stroke-width="6" mask="url(#a)"/></svg><svg width="79" height="124" fill="none" xmlns="http://www.w3.org/2000/svg"><path d="M74.756 2.64l-.468-.35-.581.057c-5.675.568-16.356.857-32.107.857-15.738 0-27.151-.336-34.277-1.002L5.684 2.05v1.647c0 .135-.05.633-.192 1.633-.136.95-.34 2.254-.616 3.918-.55 3.326-1.377 8.058-2.48 14.2l-.174.968.818.545c.986.657 2.047 1.116 3.136 1.116.756 0 1.512-.039 2.058-.221l.652-.217.261-.635c.64-1.553 1.611-3.548 2.928-5.998.141-.202.509-.535 1.358-.897.867-.37 2.083-.704 3.69-.982 3.212-.554 7.757-.842 13.677-.842 10.76 0 20.206.315 28.343.941a832.04 832.04 0 00-20.858 34.25h0l-.007.011c-11.736 20.78-22.224 41.754-31.46 62.922L6.123 116l1.674.456 1.584.432.042.011.042.009c2.882.612 5.358 1.958 7.458 4.058l.173.172.217.109a4.354 4.354 0 001.967.446c.685 0 1.351-.138 1.967-.446l.566-.283.192-.604A480.856 480.856 0 0150.14 51.172c9.385-18.386 18.17-32.938 26.35-43.688l.386-.506-.096-.63c-.233-1.51-.852-2.83-2.023-3.708z" stroke="#fff" stroke-width="3"/></svg>