<svg width="636" height="155" viewBox="0 0 636 155" fill="none" xmlns="http://www.w3.org/2000/svg">
    <mask id="path-1-outside-1" maskUnits="userSpaceOnUse" x="0.727997" y="-0.104004" width="635" height="155" fill="black">
        <rect fill="white" x="0.727997" y="-0.104004" width="635" height="155"/>
        <path d="M32.384 30.536C33.824 31.112 34.832 32.168 35.408 33.704C33.776 37.544 32.768 41.48 32.384 45.512C32.096 49.448 31.952 59.912 31.952 76.904C31.952 93.8 32.384 102.296 33.248 102.392C35.936 102.68 39.92 102.824 45.2 102.824C45.488 104.264 45.632 105.032 45.632 105.128L45.2 107.432L28.352 107C19.328 107 11.36 107.384 4.448 108.152C3.968 107.672 3.728 106.904 3.728 105.848L3.872 104.552C13.28 102.44 18.464 100.04 19.424 97.352C20.576 94.568 21.152 86.696 21.152 73.736C21.152 60.68 21.056 51.848 20.864 47.24L5.456 49.256C4.784 48.296 4.448 47.336 4.448 46.376C4.448 45.32 4.544 44.6 4.736 44.216C13.088 41.528 18.608 39.512 21.296 38.168C24.08 36.728 27.776 34.184 32.384 30.536Z"/>
        <path d="M98.1965 107.432L75.0125 107C65.4125 107 58.5005 107.24 54.2765 107.72C53.7005 106.952 53.4125 105.944 53.4125 104.696L70.6925 87.992C70.9805 87.704 72.1805 86.6 74.2925 84.68C76.4045 82.76 78.1325 81.176 79.4765 79.928C80.8205 78.584 82.5485 76.76 84.6605 74.456C86.7725 72.056 88.5005 69.848 89.8445 67.832C93.0125 63.032 94.5965 58.568 94.5965 54.44C94.5965 50.216 93.0605 46.712 89.9885 43.928C86.9165 41.144 83.4125 39.752 79.4765 39.752C75.5405 39.752 70.8845 41.048 65.5085 43.64C64.3565 50.456 63.6845 55.304 63.4925 58.184C62.7245 58.568 61.9565 58.76 61.1885 58.76C60.5165 58.76 59.9405 58.664 59.4605 58.472C59.0765 52.424 58.5005 48.296 57.7325 46.088C57.0605 43.784 56.7245 42.584 56.7245 42.488C56.7245 41.24 57.4445 40.328 58.8845 39.752C64.7405 37.256 72.6125 34.52 82.5005 31.544C89.4125 31.544 95.2685 33.128 100.069 36.296C104.869 39.464 107.269 44.456 107.269 51.272C107.269 58.088 103.045 65.48 94.5965 73.448L68.9645 97.784H84.2285C92.6765 97.784 98.4365 97.496 101.509 96.92C104.677 96.248 107.029 95.048 108.565 93.32C109.045 92.744 109.956 90.968 111.3 87.992C111.492 87.896 112.021 87.848 112.885 87.848C113.749 87.848 114.469 88.136 115.045 88.712C114.757 90.44 114.42 92.312 114.036 94.328C113.653 96.248 113.365 97.688 113.173 98.648C112.788 101.72 112.597 104.072 112.597 105.704C110.677 106.856 105.877 107.432 98.1965 107.432Z"/>
        <path d="M149.498 40.04C145.466 40.04 139.994 41.288 133.082 43.784C132.122 49.736 131.498 54.632 131.21 58.472C130.442 58.856 129.626 59.048 128.762 59.048L127.034 58.616C126.458 51.704 125.738 46.808 124.874 43.928L124.298 42.344C124.298 41.384 125.018 40.616 126.458 40.04C130.298 38.024 139.178 35.192 153.098 31.544C169.898 31.544 178.298 37.256 178.298 48.68C178.298 51.464 177.386 54.344 175.562 57.32C173.738 60.2 169.658 64.712 163.322 70.856L157.85 76.04C171.578 84.872 178.442 94.952 178.442 106.28C178.442 116.168 174.266 124.376 165.914 130.904C157.562 137.432 144.65 143.816 127.178 150.056C126.41 149.288 126.026 148.04 126.026 146.312C139.466 140.264 149.45 134.504 155.978 129.032C162.506 123.656 165.77 117.656 165.77 111.032C165.77 104.504 163.706 99.032 159.578 94.616C155.546 90.2 149.93 85.928 142.73 81.8L154.394 71.144C161.978 64.328 165.77 58.04 165.77 52.28C165.77 44.12 160.346 40.04 149.498 40.04Z"/>
        <path d="M233.387 120.68V107.432C223.595 107.144 214.523 107 206.171 107C197.819 107 191.723 107.24 187.883 107.72C187.403 107.144 187.163 106.136 187.163 104.696C189.563 102.2 191.531 99.896 193.067 97.784L224.171 56.456C229.259 49.832 234.395 42.584 239.579 34.712L241.883 31.112C243.419 31.304 244.763 31.784 245.915 32.552C244.667 38.12 244.043 50.648 244.043 70.136V97.928C250.859 97.928 254.891 97.064 256.139 95.336C257.387 93.032 258.347 90.92 259.019 89C259.499 88.808 260.075 88.712 260.747 88.712C261.419 88.712 262.091 89.048 262.763 89.72C262.379 92.024 261.803 94.856 261.035 98.216C260.363 101.48 259.979 104.072 259.883 105.992C258.347 106.856 253.067 107.384 244.043 107.576C244.043 110.936 244.283 123.368 244.763 144.872C241.691 145.064 238.091 146.6 233.963 149.48C232.907 149.48 231.947 149.192 231.083 148.616C232.619 141.608 233.387 132.296 233.387 120.68ZM233.387 98.36V54.008L200.267 98.36H233.387Z"/>
        <path d="M325.322 43.064C323.21 44.504 318.17 45.224 310.202 45.224C302.33 45.224 292.826 45.032 281.69 44.648L279.242 62.504C291.05 67.208 300.746 72.824 308.33 79.352C315.914 85.88 319.706 93.176 319.706 101.24C319.706 112.856 315.05 122.648 305.738 130.616C301.034 134.648 296.138 138.152 291.05 141.128C286.058 144.2 279.626 147.656 271.754 151.496C270.794 151.112 270.218 149.912 270.026 147.896C282.218 140.696 291.338 133.976 297.386 127.736C303.434 121.592 306.458 114.728 306.458 107.144C306.458 99.656 303.146 93.08 296.522 87.416C289.898 81.656 281.594 76.856 271.61 73.016L277.946 33.272C289.178 33.752 298.778 33.992 306.746 33.992C314.714 33.992 319.514 33.176 321.146 31.544C321.626 31.064 322.154 30.296 322.73 29.24C323.306 28.088 323.738 27.272 324.026 26.792C325.37 26.792 326.522 27.032 327.482 27.512C326.138 34.232 325.418 39.416 325.322 43.064Z"/>
        <path d="M341.976 67.976C341.976 59.048 344.328 49.832 349.032 40.328C353.832 30.824 360.792 23.096 369.912 17.144C379.128 11.096 389.208 6.67999 400.152 3.896C400.92 4.95199 401.304 6.15199 401.304 7.49599C389.208 12.488 379.704 17.96 372.792 23.912C361.56 33.704 355.944 48.296 355.944 67.688C355.944 77.576 357.528 85.976 360.696 92.888C362.328 96.44 364.584 99.224 367.464 101.24C370.44 103.256 373.896 104.264 377.832 104.264C383.688 104.264 388.2 102.104 391.368 97.784C394.536 93.464 396.12 88.136 396.12 81.8C396.12 75.464 394.248 69.56 390.504 64.088C386.76 58.52 381.816 55.736 375.672 55.736C372.216 55.736 368.856 56.648 365.592 58.472C364.248 57.8 363.576 56.552 363.576 54.728C368.664 51.656 374.76 50.12 381.864 50.12C389.064 50.12 395.304 52.808 400.584 58.184C405.864 63.56 408.504 69.8 408.504 76.904C408.504 86.6 405.336 94.136 399 99.512C392.664 104.888 384.312 108.344 373.944 109.88C364.248 109.88 356.472 105.992 350.616 98.216C344.856 90.44 341.976 80.36 341.976 67.976Z"/>
        <path d="M487.153 32.84C487.921 33.416 488.401 34.328 488.593 35.576C480.337 46.424 471.505 61.064 462.097 79.496C450.865 101.96 441.457 125.096 433.873 148.904C433.489 149.096 433.057 149.192 432.577 149.192C432.097 149.192 431.665 149.096 431.281 148.904C428.977 146.6 426.241 145.112 423.073 144.44L421.489 144.008C430.705 122.888 441.169 101.96 452.881 81.224C460.081 68.744 467.473 56.648 475.057 44.936C466.321 44.168 456.001 43.784 444.097 43.784C432.193 43.784 425.521 44.936 424.081 47.24C422.737 49.736 421.729 51.8 421.057 53.432C420.769 53.528 420.241 53.576 419.473 53.576C418.801 53.576 418.033 53.288 417.169 52.712C419.377 40.424 420.481 33.752 420.481 32.696C427.681 33.368 439.153 33.704 454.897 33.704C470.641 33.704 481.393 33.416 487.153 32.84Z"/>
        <path d="M495.207 31.4C495.207 23.528 497.799 17.528 502.983 13.4C508.167 9.176 514.935 6.44 523.287 5.192C529.815 5.192 535.815 7.304 541.287 11.528C546.759 15.656 549.495 20.456 549.495 25.928C549.495 31.4 547.959 35.912 544.887 39.464C541.815 43.016 536.727 47.24 529.623 52.136C537.111 56.744 543.015 61.304 547.335 65.816C551.655 70.328 553.815 75.464 553.815 81.224C553.815 89.672 550.839 96.248 544.887 100.952C539.031 105.56 531.495 108.536 522.279 109.88C514.983 109.88 508.263 107.624 502.119 103.112C495.975 98.504 492.903 92.984 492.903 86.552C492.903 80.12 495.063 74.6 499.383 69.992C503.799 65.288 509.895 60.68 517.671 56.168C510.471 51.848 504.903 47.816 500.967 44.072C497.127 40.328 495.207 36.104 495.207 31.4ZM504.855 82.664C504.855 88.712 506.727 93.896 510.471 98.216C514.215 102.536 518.823 104.696 524.295 104.696C529.863 104.696 534.231 102.92 537.399 99.368C540.663 95.72 542.295 91.256 542.295 85.976C542.295 80.696 540.375 75.992 536.535 71.864C532.695 67.736 527.367 63.464 520.551 59.048C510.087 66.632 504.855 74.504 504.855 82.664ZM538.551 29.384C538.551 24.008 536.871 19.4 533.511 15.56C530.151 11.72 526.023 9.8 521.127 9.8C516.327 9.8 512.439 11.432 509.463 14.696C506.583 17.96 505.143 21.512 505.143 25.352C505.143 32.264 512.343 40.232 526.743 49.256C534.615 43.112 538.551 36.488 538.551 29.384Z"/>
        <path d="M632.452 76.616C632.452 86.024 630.436 95.864 626.404 106.136C622.468 116.312 616.9 124.856 609.7 131.768C600.676 140.312 590.98 146.408 580.612 150.056C579.652 149 579.172 147.752 579.172 146.312C585.412 142.856 590.5 139.592 594.436 136.52C598.372 133.544 602.212 129.608 605.956 124.712C614.308 113.96 618.484 98.024 618.484 76.904C618.484 61.256 615.508 49.976 609.556 43.064C606.1 39.128 601.636 37.16 596.164 37.16C590.692 37.16 586.372 39.464 583.204 44.072C580.132 48.68 578.596 54.344 578.596 61.064C578.596 67.784 580.42 74.072 584.068 79.928C587.716 85.784 592.612 88.712 598.756 88.712C601.732 88.712 605.188 87.848 609.124 86.12C610.372 86.792 610.996 87.992 610.996 89.72C606.1 92.792 600.004 94.328 592.708 94.328C585.508 94.328 579.22 91.544 573.844 85.976C568.564 80.408 565.924 73.928 565.924 66.536C565.924 56.36 569.092 48.392 575.428 42.632C581.86 36.872 590.26 33.176 600.628 31.544C610.324 31.544 618.052 35.768 623.812 44.216C629.572 52.568 632.452 63.368 632.452 76.616Z"/>
    </mask>
    <path d="M32.384 30.536C33.824 31.112 34.832 32.168 35.408 33.704C33.776 37.544 32.768 41.48 32.384 45.512C32.096 49.448 31.952 59.912 31.952 76.904C31.952 93.8 32.384 102.296 33.248 102.392C35.936 102.68 39.92 102.824 45.2 102.824C45.488 104.264 45.632 105.032 45.632 105.128L45.2 107.432L28.352 107C19.328 107 11.36 107.384 4.448 108.152C3.968 107.672 3.728 106.904 3.728 105.848L3.872 104.552C13.28 102.44 18.464 100.04 19.424 97.352C20.576 94.568 21.152 86.696 21.152 73.736C21.152 60.68 21.056 51.848 20.864 47.24L5.456 49.256C4.784 48.296 4.448 47.336 4.448 46.376C4.448 45.32 4.544 44.6 4.736 44.216C13.088 41.528 18.608 39.512 21.296 38.168C24.08 36.728 27.776 34.184 32.384 30.536Z" stroke="white" stroke-width="6" mask="url(#path-1-outside-1)"/>
    <path d="M98.1965 107.432L75.0125 107C65.4125 107 58.5005 107.24 54.2765 107.72C53.7005 106.952 53.4125 105.944 53.4125 104.696L70.6925 87.992C70.9805 87.704 72.1805 86.6 74.2925 84.68C76.4045 82.76 78.1325 81.176 79.4765 79.928C80.8205 78.584 82.5485 76.76 84.6605 74.456C86.7725 72.056 88.5005 69.848 89.8445 67.832C93.0125 63.032 94.5965 58.568 94.5965 54.44C94.5965 50.216 93.0605 46.712 89.9885 43.928C86.9165 41.144 83.4125 39.752 79.4765 39.752C75.5405 39.752 70.8845 41.048 65.5085 43.64C64.3565 50.456 63.6845 55.304 63.4925 58.184C62.7245 58.568 61.9565 58.76 61.1885 58.76C60.5165 58.76 59.9405 58.664 59.4605 58.472C59.0765 52.424 58.5005 48.296 57.7325 46.088C57.0605 43.784 56.7245 42.584 56.7245 42.488C56.7245 41.24 57.4445 40.328 58.8845 39.752C64.7405 37.256 72.6125 34.52 82.5005 31.544C89.4125 31.544 95.2685 33.128 100.069 36.296C104.869 39.464 107.269 44.456 107.269 51.272C107.269 58.088 103.045 65.48 94.5965 73.448L68.9645 97.784H84.2285C92.6765 97.784 98.4365 97.496 101.509 96.92C104.677 96.248 107.029 95.048 108.565 93.32C109.045 92.744 109.956 90.968 111.3 87.992C111.492 87.896 112.021 87.848 112.885 87.848C113.749 87.848 114.469 88.136 115.045 88.712C114.757 90.44 114.42 92.312 114.036 94.328C113.653 96.248 113.365 97.688 113.173 98.648C112.788 101.72 112.597 104.072 112.597 105.704C110.677 106.856 105.877 107.432 98.1965 107.432Z" stroke="white" stroke-width="6" mask="url(#path-1-outside-1)"/>
    <path d="M149.498 40.04C145.466 40.04 139.994 41.288 133.082 43.784C132.122 49.736 131.498 54.632 131.21 58.472C130.442 58.856 129.626 59.048 128.762 59.048L127.034 58.616C126.458 51.704 125.738 46.808 124.874 43.928L124.298 42.344C124.298 41.384 125.018 40.616 126.458 40.04C130.298 38.024 139.178 35.192 153.098 31.544C169.898 31.544 178.298 37.256 178.298 48.68C178.298 51.464 177.386 54.344 175.562 57.32C173.738 60.2 169.658 64.712 163.322 70.856L157.85 76.04C171.578 84.872 178.442 94.952 178.442 106.28C178.442 116.168 174.266 124.376 165.914 130.904C157.562 137.432 144.65 143.816 127.178 150.056C126.41 149.288 126.026 148.04 126.026 146.312C139.466 140.264 149.45 134.504 155.978 129.032C162.506 123.656 165.77 117.656 165.77 111.032C165.77 104.504 163.706 99.032 159.578 94.616C155.546 90.2 149.93 85.928 142.73 81.8L154.394 71.144C161.978 64.328 165.77 58.04 165.77 52.28C165.77 44.12 160.346 40.04 149.498 40.04Z" stroke="white" stroke-width="6" mask="url(#path-1-outside-1)"/>
    <path d="M233.387 120.68V107.432C223.595 107.144 214.523 107 206.171 107C197.819 107 191.723 107.24 187.883 107.72C187.403 107.144 187.163 106.136 187.163 104.696C189.563 102.2 191.531 99.896 193.067 97.784L224.171 56.456C229.259 49.832 234.395 42.584 239.579 34.712L241.883 31.112C243.419 31.304 244.763 31.784 245.915 32.552C244.667 38.12 244.043 50.648 244.043 70.136V97.928C250.859 97.928 254.891 97.064 256.139 95.336C257.387 93.032 258.347 90.92 259.019 89C259.499 88.808 260.075 88.712 260.747 88.712C261.419 88.712 262.091 89.048 262.763 89.72C262.379 92.024 261.803 94.856 261.035 98.216C260.363 101.48 259.979 104.072 259.883 105.992C258.347 106.856 253.067 107.384 244.043 107.576C244.043 110.936 244.283 123.368 244.763 144.872C241.691 145.064 238.091 146.6 233.963 149.48C232.907 149.48 231.947 149.192 231.083 148.616C232.619 141.608 233.387 132.296 233.387 120.68ZM233.387 98.36V54.008L200.267 98.36H233.387Z" stroke="white" stroke-width="6" mask="url(#path-1-outside-1)"/>
    <path d="M325.322 43.064C323.21 44.504 318.17 45.224 310.202 45.224C302.33 45.224 292.826 45.032 281.69 44.648L279.242 62.504C291.05 67.208 300.746 72.824 308.33 79.352C315.914 85.88 319.706 93.176 319.706 101.24C319.706 112.856 315.05 122.648 305.738 130.616C301.034 134.648 296.138 138.152 291.05 141.128C286.058 144.2 279.626 147.656 271.754 151.496C270.794 151.112 270.218 149.912 270.026 147.896C282.218 140.696 291.338 133.976 297.386 127.736C303.434 121.592 306.458 114.728 306.458 107.144C306.458 99.656 303.146 93.08 296.522 87.416C289.898 81.656 281.594 76.856 271.61 73.016L277.946 33.272C289.178 33.752 298.778 33.992 306.746 33.992C314.714 33.992 319.514 33.176 321.146 31.544C321.626 31.064 322.154 30.296 322.73 29.24C323.306 28.088 323.738 27.272 324.026 26.792C325.37 26.792 326.522 27.032 327.482 27.512C326.138 34.232 325.418 39.416 325.322 43.064Z" stroke="white" stroke-width="6" mask="url(#path-1-outside-1)"/>
    <path d="M341.976 67.976C341.976 59.048 344.328 49.832 349.032 40.328C353.832 30.824 360.792 23.096 369.912 17.144C379.128 11.096 389.208 6.67999 400.152 3.896C400.92 4.95199 401.304 6.15199 401.304 7.49599C389.208 12.488 379.704 17.96 372.792 23.912C361.56 33.704 355.944 48.296 355.944 67.688C355.944 77.576 357.528 85.976 360.696 92.888C362.328 96.44 364.584 99.224 367.464 101.24C370.44 103.256 373.896 104.264 377.832 104.264C383.688 104.264 388.2 102.104 391.368 97.784C394.536 93.464 396.12 88.136 396.12 81.8C396.12 75.464 394.248 69.56 390.504 64.088C386.76 58.52 381.816 55.736 375.672 55.736C372.216 55.736 368.856 56.648 365.592 58.472C364.248 57.8 363.576 56.552 363.576 54.728C368.664 51.656 374.76 50.12 381.864 50.12C389.064 50.12 395.304 52.808 400.584 58.184C405.864 63.56 408.504 69.8 408.504 76.904C408.504 86.6 405.336 94.136 399 99.512C392.664 104.888 384.312 108.344 373.944 109.88C364.248 109.88 356.472 105.992 350.616 98.216C344.856 90.44 341.976 80.36 341.976 67.976Z" stroke="white" stroke-width="6" mask="url(#path-1-outside-1)"/>
    <path d="M487.153 32.84C487.921 33.416 488.401 34.328 488.593 35.576C480.337 46.424 471.505 61.064 462.097 79.496C450.865 101.96 441.457 125.096 433.873 148.904C433.489 149.096 433.057 149.192 432.577 149.192C432.097 149.192 431.665 149.096 431.281 148.904C428.977 146.6 426.241 145.112 423.073 144.44L421.489 144.008C430.705 122.888 441.169 101.96 452.881 81.224C460.081 68.744 467.473 56.648 475.057 44.936C466.321 44.168 456.001 43.784 444.097 43.784C432.193 43.784 425.521 44.936 424.081 47.24C422.737 49.736 421.729 51.8 421.057 53.432C420.769 53.528 420.241 53.576 419.473 53.576C418.801 53.576 418.033 53.288 417.169 52.712C419.377 40.424 420.481 33.752 420.481 32.696C427.681 33.368 439.153 33.704 454.897 33.704C470.641 33.704 481.393 33.416 487.153 32.84Z" stroke="white" stroke-width="6" mask="url(#path-1-outside-1)"/>
    <path d="M495.207 31.4C495.207 23.528 497.799 17.528 502.983 13.4C508.167 9.176 514.935 6.44 523.287 5.192C529.815 5.192 535.815 7.304 541.287 11.528C546.759 15.656 549.495 20.456 549.495 25.928C549.495 31.4 547.959 35.912 544.887 39.464C541.815 43.016 536.727 47.24 529.623 52.136C537.111 56.744 543.015 61.304 547.335 65.816C551.655 70.328 553.815 75.464 553.815 81.224C553.815 89.672 550.839 96.248 544.887 100.952C539.031 105.56 531.495 108.536 522.279 109.88C514.983 109.88 508.263 107.624 502.119 103.112C495.975 98.504 492.903 92.984 492.903 86.552C492.903 80.12 495.063 74.6 499.383 69.992C503.799 65.288 509.895 60.68 517.671 56.168C510.471 51.848 504.903 47.816 500.967 44.072C497.127 40.328 495.207 36.104 495.207 31.4ZM504.855 82.664C504.855 88.712 506.727 93.896 510.471 98.216C514.215 102.536 518.823 104.696 524.295 104.696C529.863 104.696 534.231 102.92 537.399 99.368C540.663 95.72 542.295 91.256 542.295 85.976C542.295 80.696 540.375 75.992 536.535 71.864C532.695 67.736 527.367 63.464 520.551 59.048C510.087 66.632 504.855 74.504 504.855 82.664ZM538.551 29.384C538.551 24.008 536.871 19.4 533.511 15.56C530.151 11.72 526.023 9.8 521.127 9.8C516.327 9.8 512.439 11.432 509.463 14.696C506.583 17.96 505.143 21.512 505.143 25.352C505.143 32.264 512.343 40.232 526.743 49.256C534.615 43.112 538.551 36.488 538.551 29.384Z" stroke="white" stroke-width="6" mask="url(#path-1-outside-1)"/>
    <path d="M632.452 76.616C632.452 86.024 630.436 95.864 626.404 106.136C622.468 116.312 616.9 124.856 609.7 131.768C600.676 140.312 590.98 146.408 580.612 150.056C579.652 149 579.172 147.752 579.172 146.312C585.412 142.856 590.5 139.592 594.436 136.52C598.372 133.544 602.212 129.608 605.956 124.712C614.308 113.96 618.484 98.024 618.484 76.904C618.484 61.256 615.508 49.976 609.556 43.064C606.1 39.128 601.636 37.16 596.164 37.16C590.692 37.16 586.372 39.464 583.204 44.072C580.132 48.68 578.596 54.344 578.596 61.064C578.596 67.784 580.42 74.072 584.068 79.928C587.716 85.784 592.612 88.712 598.756 88.712C601.732 88.712 605.188 87.848 609.124 86.12C610.372 86.792 610.996 87.992 610.996 89.72C606.1 92.792 600.004 94.328 592.708 94.328C585.508 94.328 579.22 91.544 573.844 85.976C568.564 80.408 565.924 73.928 565.924 66.536C565.924 56.36 569.092 48.392 575.428 42.632C581.86 36.872 590.26 33.176 600.628 31.544C610.324 31.544 618.052 35.768 623.812 44.216C629.572 52.568 632.452 63.368 632.452 76.616Z" stroke="white" stroke-width="6" mask="url(#path-1-outside-1)"/>
</svg>
<svg width="79" height="124" viewBox="0 0 79 124" fill="none" xmlns="http://www.w3.org/2000/svg">
<path d="M74.756 2.63998L74.2884 2.28926L73.7068 2.34743C68.0317 2.91494 57.351 3.20399 41.6 3.20399C25.8616 3.20399 14.449 2.86754 7.3234 2.20247L5.68401 2.04946V3.69598C5.68401 3.83072 5.63492 4.32898 5.49209 5.32885C5.35637 6.27885 5.15143 7.58338 4.87613 9.24711C4.32583 12.5729 3.49927 17.3049 2.39565 23.4467L2.22174 24.4146L3.03996 24.9601C4.02578 25.6173 5.08709 26.076 6.17601 26.076C6.93231 26.076 7.68773 26.0372 8.23435 25.855L8.88564 25.6379L9.14703 25.0031C9.78652 23.45 10.7581 21.4548 12.0755 19.0054C12.216 18.8028 12.5835 18.4699 13.4329 18.108C14.2995 17.7388 15.5156 17.4037 17.1232 17.1261C20.3348 16.5716 24.8798 16.284 30.8 16.284C41.5601 16.284 51.0061 16.5986 59.1427 17.2254C52.0194 28.3025 45.0668 39.7189 38.2847 51.4744L38.2847 51.4744L38.2779 51.4863C26.5415 72.2655 16.0544 93.2395 6.8172 114.408L6.12318 115.999L7.79733 116.455L9.38133 116.887L9.42275 116.898L9.46475 116.907C12.347 117.519 14.8232 118.865 16.9234 120.965L17.0955 121.137L17.3132 121.246C17.929 121.554 18.5949 121.692 19.28 121.692C19.9651 121.692 20.631 121.554 21.2468 121.246L21.8131 120.963L22.0052 120.359C29.5649 96.6276 38.9426 73.5655 50.1388 51.1724C59.5237 32.7863 68.3087 18.2338 76.4896 7.48441L76.8754 6.9775L76.7786 6.3479C76.5464 4.83869 75.9271 3.51832 74.756 2.63998Z" stroke="white" stroke-width="3"/>
</svg>

